<svg version="1.1" id="Layer_1" xmlns="http://www.w3.org/2000/svg" xmlns:xlink="http://www.w3.org/1999/xlink" x="0px" y="0px"
	 width="100%" viewBox="0 0 192 228" enable-background="new 0 0 192 228" xml:space="preserve">
<path fill="none" opacity="1.000000" stroke="#000000" stroke-linecap="round" stroke-linejoin="round" stroke-width="5.000000"
	d="
M37.000000,198.000000 
	C35.958160,205.348541 43.443409,211.149643 50.000771,211.098267 
	C78.998993,210.871078 108.001007,210.871078 136.999237,211.098267 
	C143.556549,211.149628 151.041824,205.348587 150.000000,198.000000 
"/>
<path fill="none" opacity="1.000000" stroke="#000000" stroke-linecap="round" stroke-linejoin="round" stroke-width="5.000000"
	d="
M149.500000,197.500000 
	C147.896790,196.698730 146.174408,197.012177 144.500000,197.011429 
	C110.500000,196.996185 76.499695,197.060532 42.500576,196.887161 
	C39.725876,196.873016 36.985802,198.614609 33.843750,196.203629 
	C31.300196,194.251892 30.041231,192.549698 29.974667,189.500549 
	C29.667149,175.413483 30.035004,175.000000 44.000000,175.000000 
	C77.500000,175.000000 111.000046,174.976288 144.499939,175.036530 
	C147.866974,175.042587 151.391876,173.692062 154.559219,176.431534 
	C156.246185,177.890564 157.190552,179.278778 157.024429,181.501831 
	C156.900558,183.159241 156.802246,184.861588 157.035660,186.494904 
	C157.862564,192.281265 155.668182,196.075012 150.000000,197.750000 
"/>
<path fill="none" opacity="1.000000" stroke="#000000" stroke-linecap="round" stroke-linejoin="round" stroke-width="5.000000"
	d="
M37.500000,105.500000 
	C39.103207,106.301270 40.825592,105.987823 42.500004,105.988571 
	C76.500000,106.003815 110.500000,106.000000 144.500000,106.000000 
	C145.000000,106.000000 145.500259,106.010757 145.999954,105.998421 
	C156.075745,105.749817 159.276047,109.822418 156.999985,120.000000 
	C156.426437,122.564682 152.259201,125.909256 149.512817,125.427025 
	C144.666290,124.576042 139.829834,125.050072 134.999908,125.038223 
	C104.333427,124.962997 73.666664,125.000000 43.000000,125.000000 
	C41.833332,125.000000 40.664341,124.951889 39.500397,125.008171 
	C33.912304,125.278389 29.519011,123.230644 29.852127,115.993195 
	C30.188820,108.678032 29.985720,107.868149 36.500000,105.500000 
"/>
<path fill="none" opacity="1.000000" stroke="#000000" stroke-linecap="round" stroke-linejoin="round" stroke-width="5.000000"
	d="
M37.500000,71.500000 
	C39.000000,71.666664 40.499886,71.977623 42.000015,71.978821 
	C76.333328,72.006302 110.666740,71.968124 144.999863,72.052826 
	C148.182602,72.060677 151.556992,70.366753 154.584900,73.415688 
	C156.420273,75.263794 157.197601,76.990578 157.043243,79.502655 
	C156.859589,82.491371 157.054840,85.501244 156.986710,88.499695 
	C156.892227,92.657715 153.007263,96.675369 149.001572,96.469505 
	C127.672668,95.373367 106.332588,96.120277 84.999832,96.068611 
	C69.335556,96.030678 53.660271,95.426804 37.997322,96.459373 
	C33.998524,96.722992 30.119345,92.657539 30.010941,88.499718 
	C29.950146,86.167961 30.200853,83.812309 29.959200,81.504272 
	C29.415464,76.311012 31.358196,72.899498 36.500000,71.500000 
"/>
<path fill="none" opacity="1.000000" stroke="#000000" stroke-linecap="round" stroke-linejoin="round" stroke-width="4.000000"
	d="
M150.000000,71.250000 
	C150.000000,62.205112 147.749878,59.195721 139.000473,56.498478 
	C129.831696,53.671951 120.616226,50.984665 111.516106,47.951675 
	C104.354309,45.564716 102.099579,39.747730 105.535439,33.018093 
	C107.335907,29.491581 106.869125,25.666229 107.424309,21.988573 
	C107.823364,19.345146 105.999557,18.452366 103.499771,18.477343 
	C96.833778,18.543947 90.166588,18.519186 83.500038,18.491638 
	C80.325180,18.478518 79.187790,19.371658 79.836205,23.029039 
	C80.566498,27.148203 80.959167,31.047812 82.674706,35.136486 
	C84.700233,39.963974 81.436211,46.811520 74.523178,48.590076 
	C65.594749,50.887150 56.828331,53.816910 48.001446,56.504749 
	C39.640438,59.050724 37.000000,62.615726 37.000000,71.250000 
"/>
<path fill="none" opacity="1.000000" stroke="#000000" stroke-linecap="round" stroke-linejoin="round" stroke-width="5.000000"
	d="
M150.000000,126.000000 
	C150.000000,142.083328 150.000000,158.166672 150.000000,174.250000 
"/>
<path fill="none" opacity="1.000000" stroke="#000000" stroke-linecap="round" stroke-linejoin="round" stroke-width="5.000000"
	d="
M37.500000,126.000000 
	C36.379337,134.481293 37.201645,143.000641 37.031822,151.500641 
	C36.880375,159.080933 37.000000,166.666672 37.000000,174.250000 
"/>
<path fill="none" opacity="1.000000" stroke="#000000" stroke-linecap="round" stroke-linejoin="round" stroke-width="5.000000"
	d="
M45.000000,139.500000 
	C45.000000,150.166672 45.000000,160.833328 45.000000,171.500000 
"/>
<path fill="none" opacity="1.000000" stroke="#000000" stroke-linecap="round" stroke-linejoin="round" stroke-width="5.000000"
	d="
M103.500000,34.500000 
	C96.833336,33.673283 90.166664,33.673283 83.500000,34.500000 
"/>
<path fill="none" opacity="1.000000" stroke="#000000" stroke-linecap="round" stroke-linejoin="round" stroke-width="4.000000"
	d="
M38.000000,77.500000 
	C39.028706,81.127480 38.254658,84.836906 38.500000,88.500000 
"/>
<path fill="none" opacity="1.000000" stroke="#000000" stroke-linecap="round" stroke-linejoin="round" stroke-width="3.000000"
	d="
M52.500000,61.500000 
	C48.160599,60.900265 46.404861,64.058586 44.500000,67.000000 
"/>
</svg>